<svg width="84" height="50" viewBox="0 0 84 50" fill="none" xmlns="http://www.w3.org/2000/svg">
<path d="M69.7917 0.416668C67.9583 0.166668 65.875 0.0416667 63.5417 0H19.7917C17.4583 0.0416667 15.375 0.166668 13.5417 0.416668C2.91667 1.70833 0 6.91667 0 20.8333V29.1667C0 45.8333 4.16667 50 20.8333 50H62.5C79.1667 50 83.3333 45.8333 83.3333 29.1667V20.8333C83.3333 6.91667 80.4167 1.70833 69.7917 0.416668ZM27.9583 27.9583C27.1667 28.7083 26.0833 29.1667 25 29.1667C24.4583 29.1667 23.9167 29.0417 23.4167 28.8333C22.875 28.625 22.4583 28.3333 22.0417 27.9583C21.2917 27.1667 20.8333 26.0833 20.8333 25C20.8333 24.4583 20.9583 23.9167 21.1667 23.4167C21.375 22.9167 21.6667 22.4583 22.0417 22.0417C22.4583 21.6667 22.875 21.375 23.4167 21.1667C24.9583 20.5 26.7917 20.875 27.9583 22.0417C28.3333 22.4583 28.625 22.9167 28.8333 23.4167C29.0417 23.9167 29.1667 24.4583 29.1667 25C29.1667 26.0833 28.7083 27.1667 27.9583 27.9583ZM45.5 26.5833C45.2917 27.0833 45 27.5417 44.625 27.9583C43.8333 28.7083 42.75 29.1667 41.6667 29.1667C40.5417 29.1667 39.5 28.7083 38.7083 27.9583C38.3333 27.5417 38.0417 27.0833 37.8333 26.5833C37.625 26.0833 37.5 25.5417 37.5 25C37.5 23.875 37.9583 22.8333 38.7083 22.0417C40.25 20.5 43.0417 20.5 44.625 22.0417C45.375 22.8333 45.8333 23.875 45.8333 25C45.8333 25.5417 45.7083 26.0833 45.5 26.5833ZM61.2917 27.9583C60.5 28.7083 59.4167 29.1667 58.3333 29.1667C57.25 29.1667 56.1667 28.7083 55.375 27.9583C54.625 27.1667 54.1667 26.125 54.1667 25C54.1667 23.875 54.625 22.8333 55.375 22.0417C56.9583 20.5 59.75 20.5 61.2917 22.0417C61.4583 22.25 61.625 22.4583 61.7917 22.7083C61.9583 22.9167 62.0833 23.1667 62.1667 23.4167C62.2917 23.6667 62.375 23.9167 62.4167 24.1667C62.4583 24.4583 62.5 24.75 62.5 25C62.5 26.0833 62.0417 27.1667 61.2917 27.9583Z" fill="#FA4A0C"/>
</svg>
