<svg width="14" height="15" viewBox="0 0 14 15" fill="none" xmlns="http://www.w3.org/2000/svg">
<path d="M8.32059 15.0001C7.67431 15.0001 7.01889 14.93 6.42591 14.798C5.4141 14.5726 3.28537 12.9485 2.83506 12.4819C2.42789 12.0601 1.33739 10.4405 1.17747 9.12309C1.10741 8.54941 1.54757 6.84004 2.08622 6.23183C2.19233 6.11252 2.30351 6.03231 2.41723 5.99271C2.39435 5.94045 2.37117 5.88833 2.34768 5.83634C1.99738 5.0738 1.47852 4.19297 1.02059 3.41519C0.245357 2.09826 -0.0435155 1.5723 0.00522222 1.27277C0.0869595 0.765081 0.503261 0.179213 1.05765 0.0766604L1.15564 0.0568604C1.29856 0.0224085 1.44476 0.00334667 1.59174 0C2.07556 0 2.51877 0.27618 2.98736 0.868648C3.393 1.38192 4.04995 2.79887 4.60281 4.08077C4.57743 3.75788 4.58708 3.4883 4.65511 3.33092C4.92926 2.69479 5.69383 2.4445 5.92686 2.42978L5.98422 2.42826C6.13196 2.42826 6.8879 2.46532 7.23821 3.20044C7.29405 3.31823 7.34736 3.44515 7.3966 3.57359C7.45956 3.35529 7.54891 3.16491 7.67634 3.05626C8.06827 2.72322 8.60489 2.55061 8.96992 2.65316C9.36236 2.76333 9.69286 3.17861 9.81217 3.71321C9.86344 3.59745 9.92538 3.50353 9.99849 3.4487C10.3534 3.18267 10.9707 3.15424 11.3616 3.42535C11.8388 3.75636 12.9365 5.73938 13.1294 7.47363C13.2873 8.89921 13.4655 11.4468 12.8771 12.4967C12.2658 13.5856 11.0154 14.4314 10.1122 14.7559C9.67255 14.9127 9.03642 15.0001 8.32059 15.0001ZM2.59898 6.4811C2.26188 6.51461 1.60138 8.4032 1.68109 9.06065C1.82426 10.2425 2.83912 11.7544 3.20059 12.1291C3.6306 12.5748 5.66641 14.108 6.53557 14.3015C7.09352 14.4259 7.70985 14.4919 8.32008 14.4919C8.96941 14.4919 9.55934 14.4132 9.93909 14.2761C10.6219 14.0309 11.8485 13.2881 12.4328 12.2459C12.8126 11.5701 12.8821 9.8501 12.6237 7.52846C12.4405 5.87442 11.3708 4.04879 11.0717 3.84063C10.8316 3.67462 10.4315 3.75585 10.3021 3.85333C10.2305 3.93506 10.1244 4.4133 10.0833 4.8687L9.95584 6.27346L9.58574 4.91236C9.58574 4.91236 9.42125 4.30821 9.31768 3.82947C9.22935 3.42484 9.00393 3.18826 8.83183 3.14054C8.64246 3.08672 8.26221 3.22227 8.00481 3.44159C7.86469 3.5609 7.76061 4.25034 7.75604 4.79356L7.73675 6.904L7.25496 4.8489C7.25293 4.83976 7.05138 3.98431 6.77977 3.41723C6.56045 2.95726 6.07815 2.93391 5.98422 2.93391C5.83649 2.94406 5.2958 3.12581 5.12116 3.53044C4.99932 3.81424 5.2755 5.29515 5.60092 6.50395L5.11964 6.66235C5.10288 6.61818 3.3336 2.12263 2.58985 1.18189C2.11161 0.57673 1.79176 0.506669 1.59275 0.506669C1.48106 0.506669 1.37343 0.529007 1.26022 0.552868L1.15107 0.574699C0.865748 0.627498 0.565706 0.991508 0.506307 1.35349C0.510876 1.54742 1.03633 2.43993 1.45872 3.15729C1.92224 3.94522 2.4482 4.83823 2.80917 5.62362C2.90106 5.82314 2.98635 6.03079 3.06504 6.243L3.06605 6.24655C3.61689 7.00554 3.89104 9.50183 3.92099 9.78867L3.41686 9.84705C3.41483 9.82928 3.18231 8.05137 2.61878 6.49989C2.61262 6.49318 2.606 6.48691 2.59898 6.4811Z" fill="black"/>
</svg>
