<svg width="71" height="84" viewBox="0 0 71 84" fill="none" xmlns="http://www.w3.org/2000/svg">
<path d="M62.6293 9.26487L39.6499 0.658046C37.2684 -0.219349 33.3828 -0.219349 31.0013 0.658046L8.02189 9.26487C3.59314 10.9361 0 16.1169 0 20.8381V54.6805C0 58.0647 2.21438 62.5352 4.93012 64.5407L27.9095 81.7126C31.9622 84.7626 38.6054 84.7626 42.6581 81.7126L65.6375 64.5407C68.3532 62.4935 70.5676 58.0647 70.5676 54.6805V20.8381C70.6094 16.1169 67.0162 10.9361 62.6293 9.26487ZM49.8444 32.6621L31.8787 50.6278C31.252 51.2545 30.4581 51.5469 29.6643 51.5469C28.8705 51.5469 28.0766 51.2545 27.4499 50.6278L20.765 43.8593C19.5534 42.6476 19.5534 40.6422 20.765 39.4305C21.9766 38.2189 23.9821 38.2189 25.1938 39.4305L29.7061 43.9428L45.4574 28.1915C46.669 26.9799 48.6745 26.9799 49.8862 28.1915C51.0978 29.4032 51.0978 31.4504 49.8444 32.6621Z" fill="#FA4A0C"/>
</svg>
