<svg width="5" height="6" viewBox="0 0 5 6" fill="none" xmlns="http://www.w3.org/2000/svg">
<path d="M3.03809 6.00001H1.76869C0.795488 6.00001 0.00846283 5.1876 0.00846283 4.18054C0.00846283 3.83357 0.296192 3.54584 0.64316 3.54584C0.990129 3.54584 1.27786 3.83357 1.27786 4.18054C1.27786 4.4852 1.49789 4.73061 1.76869 4.73061H3.03809C3.23273 4.73061 3.38505 4.5529 3.38505 4.33287C3.38505 4.03668 3.33428 4.01975 3.13964 3.95205L1.10014 3.24119C0.363893 2.98731 0 2.47109 0 1.66714C0 0.753175 0.727787 0 1.61636 0H2.88576C3.85896 0 4.64599 0.812413 4.64599 1.81947C4.64599 2.16643 4.35826 2.45416 4.01129 2.45416C3.66432 2.45416 3.37659 2.16643 3.37659 1.81947C3.37659 1.51481 3.15656 1.2694 2.88576 1.2694H1.61636C1.42172 1.2694 1.2694 1.44711 1.2694 1.66714C1.2694 1.96333 1.32017 1.98026 1.51481 2.04796L3.55431 2.75882C4.29056 3.02116 4.64599 3.53738 4.64599 4.33287C4.65445 5.2553 3.92666 6.00001 3.03809 6.00001Z" fill="white"/>
</svg>
