<svg width="9" height="9" viewBox="0 0 9 9" fill="none" xmlns="http://www.w3.org/2000/svg">
<path d="M4.1135 8.99432C2.52754 8.99432 1.03588 8.22278 0.118598 6.91972C-0.0871474 6.62824 -0.0185652 6.22533 0.272908 6.01958C0.564381 5.81383 0.9673 5.88242 1.17305 6.17389C1.85029 7.13404 2.9476 7.69984 4.1135 7.69984C6.10237 7.69984 7.71405 6.08816 7.71405 4.09929C7.71405 2.94197 7.14825 1.84465 6.20525 1.16741C5.91377 0.961662 5.85377 0.558743 6.05951 0.267269C6.26526 -0.0242038 6.66818 -0.0842131 6.95965 0.121533C8.23699 1.03882 8.99996 2.5219 8.99996 4.09929C8.99996 6.80827 6.81391 8.99432 4.1135 8.99432Z" fill="white"/>
</svg>
