<svg width="20" height="18" viewBox="0 0 20 18" fill="none" xmlns="http://www.w3.org/2000/svg">
<path d="M17.5868 2.41326C17.1484 1.9747 16.6279 1.6268 16.0551 1.38944C15.4822 1.15208 14.8682 1.02991 14.2481 1.02991C13.6281 1.02991 13.0141 1.15208 12.4412 1.38944C11.8684 1.6268 11.3479 1.9747 10.9095 2.41326L9.99978 3.32301L9.09003 2.41326C8.20457 1.52781 7.00364 1.03036 5.75142 1.03036C4.49919 1.03036 3.29826 1.52781 2.4128 2.41326C1.52735 3.29872 1.02991 4.49965 1.02991 5.75187C1.02991 7.0041 1.52735 8.20503 2.4128 9.09049L3.32255 10.0002L9.99978 16.6775L16.677 10.0002L17.5868 9.09049C18.0253 8.65213 18.3732 8.13166 18.6106 7.55881C18.8479 6.98596 18.9701 6.37195 18.9701 5.75187C18.9701 5.1318 18.8479 4.51779 18.6106 3.94494C18.3732 3.37209 18.0253 2.85162 17.5868 2.41326V2.41326Z" stroke="black" stroke-width="2" stroke-linecap="round" stroke-linejoin="round"/>
</svg>
