<svg width="19" height="19" viewBox="0 0 19 19" fill="none" xmlns="http://www.w3.org/2000/svg">
<path d="M17.07 1C16.41 0.51 15.46 0.98 15.46 1.81V1.91C15.46 3.08 14.62 4.16 13.45 4.28C12.1 4.42 10.96 3.36 10.96 2.04V1C10.96 0.45 10.51 0 9.96 0H9.04C8.49 0 8.04 0.45 8.04 1V1.91C8.04 2.79 7.57 3.61 6.84 4.01C6.8 4.04 6.76 4.06 6.72 4.08C6.71 4.08 6.71 4.09 6.7 4.09C6.63 4.12 6.56 4.15 6.48 4.18C6.46 4.19 6.44 4.19 6.42 4.2C6.3 4.24 6.17 4.27 6.03 4.28H6.02C5.87 4.3 5.71 4.3 5.56 4.28H5.55C5.41 4.27 5.28 4.24 5.16 4.2C5.06 4.17 4.96 4.13 4.86 4.08C4.08 3.73 3.54 2.95 3.54 2.04V1.81C3.54 1.04 2.72 0.58 2.07 0.91C2.06 0.92 2.05 0.92 2.04 0.93H2.03C1.96 0.98 1.9 1.03 1.83 1.08C1.72 1.17 1.61 1.26 1.51 1.36C1.44 1.43 1.37 1.5 1.31 1.57C1.23 1.65 1.16 1.73 1.09 1.82C1.04 1.88 0.98 1.94 0.94 2.01C0.89 2.07 0.85 2.14 0.81 2.2C0.8 2.21 0.79 2.22 0.78 2.24C0.69 2.37 0.61 2.52 0.54 2.66C0.52 2.68 0.51 2.69 0.51 2.71C0.45 2.83 0.39 2.95 0.35 3.08C0.32 3.13 0.31 3.17 0.29 3.22C0.27 3.26 0.26 3.31 0.24 3.35C0.21 3.45 0.18 3.56 0.15 3.67C0.11 3.81 0.0799999 3.96 0.0599999 4.11C0.0399999 4.22 0.03 4.33 0.02 4.45C0.00999998 4.59 0 4.73 0 4.87V13.63C0 16.32 2.18 18.5 4.87 18.5H9.69C10.24 18.5 10.69 18.05 10.69 17.5V14.36C10.69 12.06 12.6 10.19 14.95 10.19C15.48 10.18 16.77 10.18 18 10.18C18.55 10.18 19 9.73 19 9.18V4.87C19 3.28 18.24 1.89 17.07 1ZM8.63 12.41C8.54 12.71 8.26 12.92 7.93 12.92H4.29C4.24 12.92 4.2 12.92 4.16 12.9C3.8 12.85 3.54 12.54 3.54 12.17C3.54 11.75 3.87 11.41 4.29 11.41H7.93C8.34 11.41 8.68 11.75 8.68 12.17C8.68 12.25 8.67 12.34 8.63 12.41ZM11.41 8.7C11.32 9 11.04 9.21 10.71 9.21H4.29C4.24 9.21 4.2 9.21 4.16 9.19C3.8 9.14 3.54 8.83 3.54 8.46C3.54 8.04 3.87 7.7 4.29 7.7H10.71C11.13 7.7 11.46 8.04 11.46 8.46C11.46 8.54 11.45 8.63 11.41 8.7Z" fill="#FA4A0C"/>
</svg>
