<svg width="24" height="17" viewBox="0 0 24 17" fill="none" xmlns="http://www.w3.org/2000/svg">
<path d="M1 7.33333C0.447715 7.33333 0 7.78105 0 8.33333C0 8.88562 0.447715 9.33333 1 9.33333V7.33333ZM12.9014 9.33333C13.4537 9.33333 13.9014 8.88562 13.9014 8.33333C13.9014 7.78105 13.4537 7.33333 12.9014 7.33333V9.33333ZM1 0C0.447715 0 0 0.447715 0 1C0 1.55228 0.447715 2 1 2V0ZM23 2C23.5523 2 24 1.55228 24 1C24 0.447715 23.5523 0 23 0V2ZM1 14.6667C0.447715 14.6667 0 15.1144 0 15.6667C0 16.219 0.447715 16.6667 1 16.6667V14.6667ZM23 16.6667C23.5523 16.6667 24 16.219 24 15.6667C24 15.1144 23.5523 14.6667 23 14.6667V16.6667ZM1 9.33333H12.9014V7.33333H1V9.33333ZM1 2H23V0H1V2ZM1 16.6667H23V14.6667H1V16.6667Z" fill="black"/>
</svg>
