<svg width="21" height="17" viewBox="0 0 21 17" fill="none" xmlns="http://www.w3.org/2000/svg">
<path d="M0.848485 3.57818e-05C0.623453 3.57818e-05 0.407637 0.0894296 0.248515 0.248551C0.0893937 0.407673 0 0.623488 0 0.848521C0 1.07355 0.0893937 1.28937 0.248515 1.44849C0.407637 1.60761 0.623453 1.69701 0.848485 1.69701H2.73212L4.95855 10.6061C5.14776 11.3612 5.824 11.8788 6.60206 11.8788H17.1827C17.9488 11.8788 18.5996 11.3697 18.8007 10.6316L21 2.54549H19.2233L17.1818 10.1819H6.60121L4.37564 1.27276C4.2837 0.90726 4.07177 0.583181 3.77379 0.352423C3.4758 0.121665 3.109 -0.00242067 2.73212 3.57818e-05H0.848485ZM16.1212 11.8788C14.7255 11.8788 13.5758 13.0285 13.5758 14.4243C13.5758 15.82 14.7255 16.9697 16.1212 16.9697C17.517 16.9697 18.6667 15.82 18.6667 14.4243C18.6667 13.0285 17.517 11.8788 16.1212 11.8788ZM8.48485 11.8788C7.08909 11.8788 5.93939 13.0285 5.93939 14.4243C5.93939 15.82 7.08909 16.9697 8.48485 16.9697C9.88061 16.9697 11.0303 15.82 11.0303 14.4243C11.0303 13.0285 9.88061 11.8788 8.48485 11.8788ZM11.0303 3.57818e-05V4.24246H8.48485L11.8788 7.6364L15.2727 4.24246H12.7273V3.57818e-05H11.0303ZM8.48485 13.5758C8.96339 13.5758 9.33333 13.9457 9.33333 14.4243C9.33333 14.9028 8.96339 15.2728 8.48485 15.2728C8.0063 15.2728 7.63636 14.9028 7.63636 14.4243C7.63636 13.9457 8.0063 13.5758 8.48485 13.5758ZM16.1212 13.5758C16.5998 13.5758 16.9697 13.9457 16.9697 14.4243C16.9697 14.9028 16.5998 15.2728 16.1212 15.2728C15.6427 15.2728 15.2727 14.9028 15.2727 14.4243C15.2727 13.9457 15.6427 13.5758 16.1212 13.5758Z" fill="white"/>
</svg>
