<svg width="20" height="20" viewBox="0 0 20 20" fill="none" xmlns="http://www.w3.org/2000/svg">
<path d="M10 19.2188C8.90626 18.6933 7.91668 18.1365 7.03126 17.5484C6.14584 16.9603 5.3711 16.3973 4.70704 15.8592C4.04297 15.3212 3.46029 14.6831 2.95899 13.9449C2.45769 13.2066 2.04102 12.5654 1.70899 12.0211C1.37695 11.4768 1.10026 10.7605 0.878907 9.87214C0.657553 8.98377 0.488282 8.25494 0.371094 7.68563C0.253907 7.11633 0.166016 6.2999 0.107422 5.23636C0.0488282 4.17283 0.0162761 3.34076 0.00976564 2.74018C0.00325521 2.13959 0 1.2262 0 0C0 0.325318 0.488282 0.606843 1.46485 0.844575C2.44141 1.08231 3.6198 1.20117 5.00001 1.20117C6.38022 1.20117 7.5586 1.08231 8.53517 0.844575C9.51173 0.606843 10 0.325318 10 0C10 0.325318 10.4883 0.606843 11.4649 0.844575C12.4414 1.08231 13.6198 1.20117 15 1.20117C16.3802 1.20117 17.5586 1.08231 18.5352 0.844575C19.5117 0.606843 20 0.325318 20 0C20 1.2262 19.9968 2.13959 19.9903 2.74018C19.9837 3.34076 19.9512 4.17283 19.8926 5.23636C19.834 6.2999 19.7461 7.11633 19.6289 7.68563C19.5117 8.25494 19.3425 8.98377 19.1211 9.87214C18.8998 10.7605 18.6231 11.4768 18.291 12.0211C17.959 12.5654 17.5423 13.2066 17.041 13.9449C16.5397 14.6831 15.957 15.3212 15.293 15.8592C14.6289 16.3973 13.8542 16.9603 12.9688 17.5484C12.0833 18.1365 11.0938 18.6933 10 19.2188ZM10 2.40235C10 2.72766 9.63217 3.00919 8.89649 3.24692C8.16082 3.48465 7.27865 3.60352 6.25001 3.60352C5.54688 3.60352 4.85027 3.54721 4.16016 3.4346C3.47006 3.32199 2.91667 3.17185 2.5 2.98416C2.5 3.97263 2.51302 4.76716 2.53907 5.36774C2.56511 5.96833 2.62696 6.68465 2.72461 7.51672C2.82227 8.34878 2.96875 9.03382 3.16407 9.57185C3.35938 10.1099 3.63933 10.7167 4.00391 11.3924C4.36849 12.068 4.81446 12.6561 5.3418 13.1566C5.86915 13.6571 6.52345 14.1763 7.3047 14.7144C8.08595 15.2524 8.98439 15.7529 10 16.2158V2.40235Z" fill="white"/>
</svg>
