<svg width="90" height="81" viewBox="0 0 90 81" fill="none" xmlns="http://www.w3.org/2000/svg">
<path d="M45 80.7907C43.7023 80.7907 42.4465 80.6232 41.4 80.2465C25.4093 74.7628 0 55.2977 0 26.5395C0 11.8884 11.8465 0 26.4139 0C33.4884 0 40.1023 2.76279 45 7.70233C49.8977 2.76279 56.5116 0 63.586 0C78.1535 0 90 11.9302 90 26.5395C90 55.3395 64.5907 74.7628 48.6 80.2465C47.5535 80.6232 46.2977 80.7907 45 80.7907ZM26.4139 6.27907C15.3209 6.27907 6.27907 15.3628 6.27907 26.5395C6.27907 55.1302 33.7814 71.0372 43.4512 74.3442C44.2046 74.5953 45.8372 74.5953 46.5907 74.3442C56.2186 71.0372 83.7628 55.1721 83.7628 26.5395C83.7628 15.3628 74.7209 6.27907 63.6279 6.27907C57.2651 6.27907 51.3628 9.25116 47.5535 14.4C46.3814 15.9907 43.7023 15.9907 42.5302 14.4C38.6372 9.2093 32.7767 6.27907 26.4139 6.27907Z" fill="#C7C7C7"/>
</svg>
